<?xml version="1.0" encoding="UTF-8"?> <svg xmlns="http://www.w3.org/2000/svg" width="200" height="200" viewBox="0 0 200 200" fill="none"><path d="M180.487 63.6109C180.487 57.1665 175.265 51.9443 168.82 51.9443H149.931V16.9443H163.265C165.098 16.9443 166.598 15.4443 166.598 13.6109C166.598 11.7776 165.098 10.2776 163.265 10.2776H129.931C128.098 10.2776 126.598 11.7776 126.598 13.6109C126.598 15.4443 128.098 16.9443 129.931 16.9443H143.265V51.9443H124.376C117.931 51.9443 112.709 57.1665 112.709 63.6109C112.709 70.0554 117.654 74.9442 123.82 75.222V110.833C123.82 119.778 126.431 127.444 130.542 132.944C133.876 137.389 138.376 140.555 143.265 141.555V163.611C143.265 165.444 144.765 166.944 146.598 166.944C148.431 166.944 149.931 165.444 149.931 163.611V141.555C154.82 140.555 159.265 137.444 162.654 132.944C166.765 127.444 169.376 119.778 169.376 110.833V75.222C175.542 74.9442 180.487 69.8887 180.487 63.6109ZM157.32 128.944C154.154 133.222 150.154 135.278 146.598 135.278C143.042 135.278 139.098 133.222 135.876 128.944C132.709 124.722 130.487 118.5 130.487 110.833V75.2776H162.709V110.833C162.709 118.555 160.487 124.778 157.32 128.944ZM168.82 68.6109H124.376C121.598 68.6109 119.376 66.3887 119.376 63.6109C119.376 60.8331 121.598 58.6109 124.376 58.6109H168.82C171.598 58.6109 173.82 60.8331 173.82 63.6109C173.82 66.3887 171.598 68.6109 168.82 68.6109Z" fill="#0F5E67"></path><path d="M119.654 130.833C117.82 130.555 116.098 131.778 115.82 133.611L110.709 164.944C110.32 167.222 108.542 168.611 106.82 168.611H101.098C101.098 168.611 100.709 168.555 100.542 168.5C99.5425 168.333 98.6536 167.778 98.0425 166.833C97.6536 166.222 97.3203 165.555 97.2092 164.722L93.2092 131.333L90.4314 131.666H90.2647L93.2647 131.333C93.2647 131.333 93.2092 131.055 93.1536 130.889C92.9869 129.722 92.598 128.555 92.098 127.5C90.598 124.555 87.9314 122.389 84.7092 121.722C84.2092 121.611 83.7092 121.611 83.2092 121.555C83.0425 121.555 82.8758 121.555 82.7092 121.555H77.7092C77.7092 121.555 77.2092 121.611 76.9869 121.611C76.5425 121.611 76.1536 121.611 75.7092 121.722C71.8203 122.5 68.7092 125.5 67.5425 129.333C67.4314 129.611 67.4314 129.944 67.3758 130.222C67.3203 130.555 67.2092 130.944 67.1536 131.278L63.098 164.666C63.0425 165.222 62.8758 165.722 62.6536 166.222C61.9869 167.555 60.7647 168.389 59.5425 168.5C59.4314 168.5 59.3203 168.555 59.2092 168.555H53.4869C51.7647 168.555 49.9869 167.166 49.598 164.889L44.4869 133.555V133.444C43.3203 126.5 41.3758 119.778 38.7647 113.333C36.6536 108.166 34.1536 103.166 31.2092 98.4443C31.2092 98.3887 31.1536 98.2776 31.098 98.222C22.5425 84.9443 23.3203 67.1665 32.8758 54.7776C32.8758 54.722 32.9314 54.6665 32.9869 54.6109C33.9314 53.4443 34.9314 52.3887 35.9869 51.3887C45.7647 41.722 59.9869 39.1665 72.1536 45.222C72.1536 45.222 72.4869 45.3331 72.6536 45.3887C77.4869 47.6665 83.0425 47.6665 87.8758 45.3887C88.0425 45.3331 88.2092 45.2776 88.3758 45.222C97.9314 40.4998 108.987 40.8887 118.209 46.3331C119.82 47.2776 121.82 46.722 122.765 45.1665C123.709 43.5554 123.154 41.5554 121.598 40.6109C110.431 33.9998 96.9869 33.4998 85.4314 39.2776C82.2092 40.8887 78.4314 40.8887 75.2092 39.2776L73.7647 42.222L75.2647 39.2776C75.2647 39.2776 75.098 39.222 74.9869 39.1665C60.6536 32.1665 44.1536 34.8887 32.5425 45.4998C30.8758 46.9998 29.3203 48.722 27.8758 50.5554C27.8758 50.6109 27.8203 50.6665 27.7647 50.722C16.4314 65.3331 15.5425 86.1109 25.5425 101.778V101.889H25.598C28.3203 106.166 30.598 110.722 32.5425 115.444C34.9869 121.389 36.8203 127.611 37.9314 134.055C37.9314 134.278 38.0425 134.444 38.0425 134.666L40.5425 134.278H40.8203L38.0425 134.666L41.1536 134.166H41.3203L38.0425 134.666L43.1536 166.055C43.1536 166.055 43.2092 166.278 43.2647 166.389C44.2092 171.333 48.2647 175.111 53.3203 175.278C53.4314 175.278 53.5425 175.278 53.6536 175.278H59.3758C59.6536 175.278 59.9314 175.222 60.2647 175.166C60.6536 175.166 61.0425 175.166 61.4314 175.055C64.7092 174.389 67.3203 172.222 68.8203 169.278C69.3203 168.278 69.6536 167.111 69.8758 165.944C69.8758 165.778 69.9314 165.611 69.9869 165.5L74.0425 132.111C74.0425 132.111 74.1536 131.722 74.2092 131.555C74.6536 129.666 76.098 128.444 77.598 128.278C77.7092 128.278 77.8758 128.222 77.9869 128.222H82.9869C83.3203 128.222 83.6536 128.333 83.9869 128.444C85.098 128.778 86.0425 129.611 86.5425 130.889C86.7092 131.278 86.8758 131.722 86.9314 132.166L90.9314 165.555L93.6536 165.222H94.1536L90.9314 165.555C90.9314 165.555 90.9869 165.833 91.0425 166C91.3203 167.722 91.9869 169.389 92.9314 170.778C94.4869 173 96.7647 174.611 99.4314 175.111C99.8758 175.222 100.376 175.222 100.82 175.222C101.042 175.222 101.209 175.278 101.431 175.278H107.154C107.154 175.278 107.376 175.278 107.431 175.278C112.542 175.111 116.598 171.278 117.542 166.333C117.542 166.222 117.542 166.166 117.598 166.055L122.709 134.666C122.987 132.833 121.765 131.111 119.931 130.833H119.654ZM66.3203 165.111H66.2647L67.3758 165.222L66.3203 165.111Z" fill="#0F5E67"></path><path d="M66.5425 55.3887C64.9314 54.4998 62.9314 55.0554 61.9869 56.6665C61.098 58.2776 61.6536 60.2776 63.2647 61.222L64.9314 58.3331L66.5425 55.4443V55.3887Z" fill="#0F5E67"></path><path d="M98.098 56.6109C97.2092 54.9998 95.1536 54.4443 93.5425 55.3331C89.3758 57.6665 84.7647 58.8887 80.098 58.7776C80.098 58.7776 80.098 58.7776 80.0425 58.7776V62.1109H80.098V58.7776C75.3758 58.8331 70.7092 57.6665 66.598 55.3331L64.9869 58.222L63.3203 61.1109C63.3203 61.1109 63.5425 61.222 63.6536 61.2776C68.4869 63.9443 73.8758 65.3331 79.3758 65.3887C79.598 65.3887 79.8203 65.3887 80.0425 65.3887H80.1536C80.1536 65.3887 80.598 65.3887 80.8203 65.3887C86.3203 65.3887 91.7092 63.9443 96.4869 61.2776C96.598 61.222 96.7092 61.1665 96.8203 61.1109C98.4314 60.222 98.9869 58.1665 98.098 56.5554V56.6109Z" fill="#0F5E67"></path></svg> 