<?xml version="1.0" encoding="UTF-8"?> <svg xmlns="http://www.w3.org/2000/svg" width="114" height="108" viewBox="0 0 114 108" fill="none"><g clip-path="url(#clip0_834_14241)"><path d="M90.6993 12.9749C86.4006 -1.0772 67.8125 -1.24206 56.3952 1.17728C42.8956 4.03371 30.4054 11.7633 20.411 21.3717C10.1671 31.2178 2.64993 44.1542 0.884247 58.6357C-0.751057 72.0705 2.77286 85.9425 12.6182 95.3131C33.4078 115.097 66.6354 109.515 87.9763 93.8025C98.2538 86.2377 107.57 75.2874 111.623 62.8034C113.996 55.4994 113.88 47.973 112.595 40.458C111.426 33.6064 109.511 26.5746 105.391 20.9346C98.25 11.1575 85.5438 7.55729 74.1153 8.50816C60.9845 9.60089 49.2021 16.648 39.4312 25.3899C36.9876 27.5753 34.652 29.8912 32.3909 32.2722C31.5341 33.1732 30.5619 34.6455 31.0014 35.9874C31.3925 37.1837 32.7261 37.0763 33.4898 36.275C41.9233 27.399 51.6569 19.2859 63.3573 15.5898C73.6013 12.3538 85.5215 12.8522 94.823 18.7031C105.551 25.4512 109.261 39.603 109.53 51.8531C109.805 64.5441 102.348 75.8893 93.5751 84.2056C75.7767 101.072 46.8851 109.089 24.6129 97.0116C13.7991 91.1454 6.30422 80.8431 4.80302 68.2364C3.29064 55.5377 7.44037 42.517 15.073 32.5482C22.8398 22.4069 33.8511 14.1328 45.518 9.40151C51.2956 7.05885 57.4717 5.52136 63.6926 5.29898C69.9135 5.0766 76.5739 5.78208 81.7368 9.5242C84.0836 11.2227 85.9573 13.5577 86.8253 16.395C87.6783 19.1824 91.3326 15.0262 90.7031 12.9634L90.6993 12.9749Z" fill="#FFD67B"></path><path d="M41.4163 37.9545C41.1966 43.0424 41.1928 48.138 41.4312 53.2298C41.5504 55.7104 41.7218 58.1911 41.9528 60.6642C42.1353 62.6157 41.8894 65.338 43.5732 66.6224C45.6964 68.2442 49.1906 62.3742 46.9257 60.645L46.6277 60.4188L47.2796 61.3505C46.5495 59.6903 46.7059 57.1137 46.5681 55.304C46.3968 53.0764 46.2701 50.8411 46.1919 48.6058C46.0317 44.1352 46.0615 39.6607 46.2552 35.194C46.3223 33.6718 44.985 33.1005 43.7929 33.7293C42.3439 34.4961 41.4909 36.348 41.4238 37.9545H41.4163Z" fill="#FFD67B"></path><path d="M64.0431 33.3687C63.1565 42.1144 62.717 50.8908 62.784 59.6825C62.7952 61.1854 64.0058 61.8027 65.2463 61.1471C66.6357 60.4109 67.6303 58.5054 67.6154 56.9219C67.5521 48.6478 67.906 40.3737 68.7404 32.1418C68.8708 30.8459 68.5392 29.3544 66.9598 29.6535C65.5331 29.9218 64.1846 31.9731 64.0431 33.3726V33.3687Z" fill="#FFD67B"></path><path d="M24.4635 70.7132C26.896 75.364 29.7494 79.9037 33.9699 83.0362C38.1904 86.1687 43.249 87.4493 48.2518 87.4569C58.9427 87.4723 68.8514 81.7172 77.136 75.2337C81.8072 71.5797 86.0314 67.1206 88.5794 61.6187C88.9966 60.7176 89.6671 58.9463 88.5235 58.2638C87.473 57.6388 86.0799 59.0191 85.6738 59.8933C83.1296 65.3876 78.6856 69.4135 73.8952 72.8335C68.7844 76.4798 63.2377 79.7196 57.1622 81.2763C51.5448 82.7141 45.3425 82.5991 40.0343 80.0379C34.3126 77.2773 30.8259 71.9248 27.9204 66.3692C26.8103 64.245 23.4168 68.7271 24.4561 70.7132H24.4635Z" fill="#FFD67B"></path></g><defs><clipPath id="clip0_834_14241"><rect width="113" height="108" fill="white" transform="translate(0.5)"></rect></clipPath></defs></svg> 