<?xml version="1.0" encoding="UTF-8"?> <svg xmlns="http://www.w3.org/2000/svg" width="200" height="200" viewBox="0 0 200 200" fill="none"><path d="M137.398 89.3725C138.12 90.2059 139.12 90.5948 140.064 90.5948C140.898 90.5948 141.731 90.317 142.398 89.7059C144.564 87.817 146.953 86.1503 149.509 84.7614C151.231 83.817 151.898 81.6503 150.953 79.9281C150.009 78.2059 147.842 77.5392 146.12 78.4837C143.12 80.0948 140.287 82.0392 137.731 84.317C136.231 85.5948 136.064 87.8725 137.398 89.317V89.3725Z" fill="#0F5E67"></path><path d="M116.231 96.817C117.453 96.817 118.62 96.2059 119.287 95.0948C120.287 93.4281 119.787 91.2059 118.12 90.2059L109.342 84.817C107.509 83.7059 105.231 83.6503 103.342 84.6503L100.564 86.1503L97.7865 84.6503C95.8977 83.6503 93.5643 83.7059 91.7865 84.817L83.0088 90.2059C81.3421 91.2059 80.7865 93.4281 81.8421 95.0948L82.7865 94.5392L82.5643 94.6503L81.8421 95.0948C82.8421 96.7614 85.0643 97.317 86.731 96.2614L95.0088 91.2059L97.8421 92.7059C99.6199 93.6503 101.675 93.6503 103.453 92.7059L106.287 91.2059L114.564 96.2614C115.12 96.5948 115.787 96.7614 116.398 96.7614L116.231 96.817Z" fill="#0F5E67"></path><path d="M123.953 123.873C123.953 123.873 124.287 123.873 124.453 123.873C126.175 123.873 127.731 122.595 127.953 120.817L126.898 120.65L128.009 120.817L129.009 114.095C129.12 113.317 129.287 112.484 129.453 111.706C129.842 109.761 128.62 107.873 126.675 107.484C124.731 107.095 122.842 108.317 122.453 110.261C122.231 111.206 122.064 112.15 121.953 113.095L120.953 119.817C120.675 121.761 122.009 123.595 123.953 123.873Z" fill="#0F5E67"></path><path d="M176.231 43.4281C174.287 43.0392 172.398 44.2614 172.009 46.2059L173.12 46.4281H173.009L172.009 46.2059L171.453 49.0948C170.787 52.3725 168.398 54.9837 165.231 55.9281C162.287 56.817 160.12 59.317 159.62 62.317L157.787 73.3725L155.064 74.4837C153.231 75.2614 152.398 77.317 153.175 79.1503C153.731 80.5392 155.064 81.317 156.453 81.317L154.342 93.8725C152.064 107.428 143.453 119.373 131.287 125.761L126.398 128.317C125.953 127.15 124.953 126.261 123.675 126.095C121.731 125.817 119.898 127.15 119.62 129.095L119.175 132.15L114.731 134.484C105.731 139.206 95.0088 139.206 86.0088 134.484L75.6754 129.039L69.3977 125.761C57.231 119.373 48.6199 107.428 46.3421 93.8725L41.0088 62.2614C40.5088 59.2059 38.3421 56.7614 35.3977 55.8725C32.231 54.8725 29.8421 52.2614 29.1754 49.0392L25.0088 28.5392C24.731 27.2614 25.0088 25.9836 25.731 24.8725C27.1754 22.6503 30.0643 21.9836 32.3421 23.317L35.231 25.0392L35.6754 24.317L35.7865 24.0948L35.231 25.0392C36.8977 26.0392 39.1199 25.4837 40.1199 23.817C41.1199 22.1503 40.5643 19.9281 38.8977 18.9281L36.0088 17.2059C30.3977 13.9836 23.2865 15.5948 19.731 21.0392C18.0088 23.7059 17.3977 26.9281 18.0088 30.0392L22.1754 50.5392C23.3421 56.3725 27.6199 61.0392 33.2865 62.7614C33.6199 62.8725 33.8977 63.1503 33.9532 63.5392L39.2865 95.1503C40.5643 102.928 43.731 110.373 48.3421 116.761C50.8421 120.206 53.7865 123.317 57.0643 126.039L56.1754 143.595C56.0643 145.539 57.5643 147.206 59.5643 147.317H59.731C61.6199 147.317 63.1754 145.817 63.2865 143.928L63.9532 130.817C64.6754 131.206 65.3421 131.65 66.0643 132.039L82.6199 140.761C88.1754 143.706 94.231 145.15 100.287 145.15C106.342 145.15 112.453 143.706 117.953 140.761L134.509 132.039C135.342 131.595 136.12 131.095 136.898 130.595L138.231 157.539C138.342 160.15 139.675 162.539 141.787 164.039L169.509 183.706C170.12 184.15 170.842 184.373 171.564 184.373C172.675 184.373 173.787 183.873 174.453 182.873C175.62 181.261 175.231 179.039 173.62 177.928L145.898 158.261C145.564 158.039 145.342 157.65 145.342 157.206L143.731 125.706C146.898 123.039 149.731 120.039 152.12 116.65C156.731 110.261 159.842 102.761 161.175 95.0392L166.509 63.4281C166.564 63.0392 166.842 62.7614 167.175 62.6503C172.842 60.9281 177.12 56.2059 178.287 50.4281L178.842 47.5392C179.231 45.5948 178.009 43.7059 176.064 43.317L176.231 43.4281Z" fill="#0F5E67"></path><path d="M180.842 21.0392C177.287 15.6503 170.175 13.9836 164.62 17.2614L164.898 17.7059L164.675 17.2614L161.787 18.9836C160.12 19.9836 159.509 22.1503 160.564 23.8725C161.564 25.5392 163.731 26.1503 165.453 25.0948L168.342 23.3725C170.62 22.0392 173.509 22.7059 174.953 24.9281C175.675 26.0392 175.898 27.317 175.675 28.5948L174.231 35.8725L175.342 36.0948H174.953L174.231 35.8725C173.842 37.817 175.064 39.7059 177.009 40.0948C177.231 40.0948 177.509 40.1503 177.731 40.1503C179.398 40.1503 180.898 38.9836 181.231 37.317L182.675 30.0392C183.287 26.9281 182.675 23.7059 180.953 21.0948L180.842 21.0392Z" fill="#0F5E67"></path><path d="M127.398 105.317C127.898 105.539 128.398 105.65 128.842 105.65C130.175 105.65 131.509 104.873 132.064 103.539C133.231 100.928 134.731 98.3725 136.453 96.0948C137.62 94.5392 137.287 92.2614 135.731 91.0948C134.175 89.9281 131.898 90.2614 130.731 91.817C128.675 94.5392 126.953 97.4837 125.564 100.595C124.731 102.373 125.564 104.484 127.342 105.317H127.398Z" fill="#0F5E67"></path><path d="M90.6199 102.261L90.8421 101.928L90.231 102.873L92.5088 104.373C94.8977 105.928 97.6199 106.706 100.287 106.706C102.953 106.706 105.731 105.928 108.064 104.373L110.342 102.873C112.009 101.761 112.453 99.5948 111.342 97.9281C110.231 96.2614 108.064 95.817 106.398 96.9281L104.12 98.4281C101.787 99.9837 98.731 99.9837 96.3421 98.4281L94.0643 96.9281C92.3977 95.8725 90.231 96.317 89.1199 97.9281C88.0088 99.5948 88.5088 101.761 90.1199 102.873L90.5088 102.317L90.6199 102.261Z" fill="#0F5E67"></path><path d="M82.7865 71.6503C85.5088 74.3725 89.6754 75.0392 93.1199 73.317L93.3977 73.1503L95.3421 74.7059C96.7865 75.8725 98.5088 76.4281 100.287 76.4281C102.064 76.4281 103.787 75.8725 105.231 74.7059L107.175 73.1503L107.453 73.317C110.898 75.0392 115.064 74.3725 117.787 71.6503C121.064 68.4281 121.398 63.2614 118.564 59.6503L112.731 52.2614C112.342 51.7614 112.12 51.0948 112.12 50.4837V41.8725C112.12 39.9281 110.509 38.317 108.564 38.317C106.62 38.317 105.009 39.9281 105.009 41.8725V50.4837C105.009 52.7059 105.787 54.9281 107.12 56.6503L112.953 64.0392C113.564 64.817 113.453 65.8725 112.787 66.5392C112.231 67.0948 111.342 67.2614 110.62 66.8725L110.398 67.3725V67.2614L110.62 66.8725L110.231 66.6503C107.787 65.4281 104.898 65.7614 102.787 67.4837L100.787 69.1503C100.787 69.1503 100.12 69.3725 99.8977 69.1503L97.8977 67.4837C95.7865 65.7614 92.8421 65.4281 90.4532 66.6503L90.0643 66.8725C89.3421 67.2614 88.4532 67.0948 87.8977 66.5392C87.231 65.8725 87.1199 64.7614 87.731 64.0392L93.5643 56.6503L93.0643 56.2614L92.6754 55.9837L93.5643 56.6503C94.9532 54.8725 95.6754 52.7059 95.6754 50.4837V41.8725C95.6754 39.9281 94.0643 38.317 92.1199 38.317C90.1754 38.317 88.5643 39.9281 88.5643 41.8725V50.4837C88.5643 51.1503 88.3421 51.7614 87.9532 52.2614L82.1199 59.6503C79.2865 63.2614 79.6199 68.4281 82.8977 71.6503H82.7865ZM106.564 72.2059H106.62L107.12 72.9281L106.564 72.2059Z" fill="#0F5E67"></path><path d="M59.3977 150.706C57.3977 150.595 55.7865 152.15 55.6754 154.095L55.5088 157.317C55.5088 157.761 55.2865 158.15 54.9532 158.373L27.231 178.039C25.6199 179.206 25.231 181.428 26.3977 182.984C27.1199 183.984 28.1754 184.484 29.2865 184.484C30.0088 184.484 30.731 184.261 31.3421 183.817L59.0643 164.15C61.1754 162.65 62.5088 160.261 62.6199 157.65L62.7865 154.428C62.8977 152.484 61.3977 150.817 59.3977 150.706Z" fill="#0F5E67"></path></svg> 