<svg width="33" height="45" viewBox="0 0 33 45" fill="none" xmlns="http://www.w3.org/2000/svg">
<path d="M9.58903 5.48942L12.0578 42.1361C12.3798 46.9054 18.0688 42.007 17.8649 38.9064L15.3961 2.25968C15.0741 -2.50956 9.38509 2.38887 9.58903 5.48942Z" fill="#F8CC6C"/>
<path d="M28.8991 5.98469C20.3013 14.1559 11.2848 21.8427 1.86042 29.0558C-0.908925 31.1766 -0.747915 37.8837 3.43831 34.6755C12.8627 27.4732 21.8684 19.7864 30.477 11.6044C32.9351 9.26825 32.7097 2.35662 28.8991 5.98469Z" fill="#F8CC6C"/>
<path d="M2.70869 17.644C8.35473 24.7279 15.2352 30.5737 23.1461 34.9447C26.0442 36.5488 30.0587 29.5402 27.1713 27.9469C19.6039 23.7698 13.0991 18.3008 7.69996 11.5398C5.44584 8.70844 0.755121 15.1894 2.70869 17.644Z" fill="#F8CC6C"/>
</svg>
